<svg xmlns="http://www.w3.org/2000/svg" viewBox="0 0 216 216"><defs><style>.cls-1{fill:#fff;}</style></defs><title>Asset 2</title><g id="Layer_2" data-name="Layer 2"><g id="Layer_1-2" data-name="Layer 1"><path class="cls-1" d="M0,0V216H216V0ZM200,200H140a4.69,4.69,0,0,1-3-4.63c0-3.25.12-13.95.12-27.2,0-9.25-3.17-15.3-6.73-18.36,22.09-2.46,45.27-10.84,45.27-48.93a38.26,38.26,0,0,0-10.19-26.61c1-2.51,4.42-12.59-1-26.24,0,0-8.31-2.67-27.24,10.17a94,94,0,0,0-49.65,0C68.65,45.36,60.33,48,60.33,48c-5.39,13.65-2,23.73-1,26.24a38.33,38.33,0,0,0-10.21,26.61c0,38,23.15,46.5,45.17,49-2.83,2.48-5.39,6.85-6.3,13.26-5.65,2.54-20,6.91-28.86-8.24,0,0-5.24-9.52-15.19-10.22,0,0-9.68-.12-.68,6,0,0,6.5,3,11,14.5,0,0,5.82,19.28,33.4,13.29,0,8.28.13,14.51.13,16.86A4.7,4.7,0,0,1,84.75,200H16V16H200Z"/></g></g></svg>